# xmcd
#
# Track frame offsets: 
#        150
#        19220
#        25665
#        47030
#        78985
#        95170
#        106195
#        122640
#        142962
#        176155
#        205852
#        208480
#
# Disc length: 3119 seconds
#
# Revision: 0
# Processed by: cddbd v1.5.2PL0 Copyright (c) Steve Scherf et al.
# Submitted via: ExactAudioCopy v1.1
#
DISCID=a60c2d0c
DTITLE=植松孝夫(ts) 渋谷毅(p,o) 川端民生(b) セシル・モンロー(ds) Bobby Watson(b) Gemi Tay
DTITLE=lor(g) Keith R.Haines(key) David C.Brown(ds) - 黒い空間 浅川マキ
DYEAR=1994
DGENRE=Blues
TTITLE0=ワルツに抱かれて
TTITLE1=語り
TTITLE2=ロンサム・ロード
TTITLE3=あなたに
TTITLE4=貧乏な暮し
TTITLE5=マイ・マン
TTITLE6=炎の向こうに
TTITLE7=暗い日曜日
TTITLE8=都会に雨が降る頃
TTITLE9=あの人は行った
TTITLE10=語り
TTITLE11=Love Time
EXTD=
EXTT0=
EXTT1=
EXTT2=
EXTT3=
EXTT4=
EXTT5=
EXTT6=
EXTT7=
EXTT8=
EXTT9=
EXTT10=
EXTT11=
PLAYORDER=
